<svg version="1.1" id="layer" xmlns="http://www.w3.org/2000/svg" viewBox="0 0 529.1 95.3" width="529" height="95">
<style type="text/css">
	.st0{fill:#BFC0C0;}
</style>
<title>hero_title_s</title>
<rect x="53.9" y="0" width="421.3" height="37.3"/>
<path class="st0" d="M74.6,12.6c-2.4,0-3.1,0.1-3.4,0.1c-0.1,0-0.5,0.1-0.6,0.1c-0.1,0-0.2-0.1-0.2-0.2L69.9,12
	c-0.1-0.1-0.1-0.1-0.1-0.2s0.1-0.1,0.1-0.1c0.2,0,2.5,0.2,3,0.2c0.3,0,0.6-0.1,0.8-0.3c0.1-0.8,0.2-1.7,0.2-2.5
	c0-0.7-0.1-1.3-0.4-1.9c-0.1-0.1-0.1-0.2-0.1-0.3c0-0.2,0.2-0.4,0.4-0.3c0,0,0,0,0,0c0.2,0,2.4,0.4,2.4,0.9c0,0.2-0.1,0.3-0.3,0.4
	c-0.2,0.2-0.3,0.4-0.3,0.7c0,2.7,0,3,0.1,3.2c0.2,0.3,0.5,0.3,1,0.3c0.2,0,0.5,0,0.8-0.5c0.3-0.4,0.5-0.6,0.7-0.6
	c0.2,0,1.8,1.2,1.8,1.6c0,0.2-0.1,0.2-0.6,0.4c-0.5,0.2-0.6,0.3-1.6,1.8c-0.4,0.6-0.9,1.2-1.3,1.7C76,16.7,76,16.7,76,16.9
	s0.2,0.5,0.2,0.6c0,0.1-0.4,0.6-0.4,0.8c-0.1,0.4-0.1,0.8-0.1,1.2c0,0.1,0,0.4,0.2,0.4c0.6,0,2.6-2.7,2.9-3.5C78.9,16,79,16,79.1,16
	c0.6,0.3,1.1,0.9,1.5,1.5c0,0.3-0.2,0.3-0.6,0.5c-0.9,0.5-1.7,1-2.6,1.6c-0.5,0.3-0.5,0.4-0.5,0.5c0,0.1,0.2,0.2,0.5,0.3
	c0.6,0.2,2.5,1,2.5,2.5c0,0.5-0.4,0.9-0.9,0.9c-0.4,0-0.5-0.1-0.9-0.8c-0.1-0.2-1.6-2.4-2.2-2.4c-0.2,0-0.3,0.1-0.3,0.5
	c0,1-0.1,5.5-0.1,6.4c0,0.3,0.1,1.6,0.1,1.9c0,0.5,0,1.4-1.2,1.4c-0.5,0-0.7-0.1-0.7-0.9c0-0.6,0.2-5.3,0.2-6c0-1.2,0.1-3,0.1-4.2
	c0-0.1,0-0.5-0.3-0.5c-0.3,0.2-0.7,0.4-1,0.6c-1.1,0.7-2.2,1.4-3.4,1.9c0,0-0.1,0-0.1-0.1s0.3-0.4,0.6-0.6c2.3-1.9,4.3-4.1,6-6.6
	c0.7-1,0.8-1.1,0.8-1.4c0-0.4-0.3-0.4-0.7-0.4L74.6,12.6z M90,9.2c0.3,0,0.6-0.1,0.7-0.3c0.5-0.7,0.5-0.8,0.7-0.8c0.1,0,2,1.3,2,1.8
	c0,0.1-0.5,0.7-0.5,0.8c-0.3,0.8-0.4,1.7-0.3,2.6c0,4.5-0.4,8.9-1.2,13.3c-0.6,2.8-1.9,3.9-3.1,3.9c-0.8,0-0.9-0.3-1-0.8
	c-0.1-0.6-0.5-1.1-1-1.5c-0.1-0.1-0.8-0.3-0.8-0.5c0-0.1,0.1-0.1,0.2-0.1c0.1,0,0.3,0.1,0.6,0.1c0.6,0.2,1.3,0.3,2,0.3
	c0.7,0,1.3,0,2-5.1c0.5-4.1,0.8-8.2,0.7-12.3c0-0.6-0.2-0.8-0.9-0.8h-3c-1,0-1,0.2-1,1.6c-0.1,4.4-0.2,8.5-1.6,12.3
	c-1,2.9-3.1,5.2-5.9,6.4c0,0-0.1,0-0.1-0.1c0-0.1,1.7-1.9,2-2.2c1.2-1.6,3.7-4.9,3.9-13.7c0-0.5-0.1-2.8-0.1-3.4s-0.1-0.8-0.9-0.8
	c-0.3,0-1.8,0.1-2,0.1c-0.1,0-0.2-0.1-0.2-0.2l-0.5-0.6c-0.1-0.1-0.1-0.1-0.1-0.2S80.4,9,80.5,9c0.2,0,1,0.1,1.2,0.1
	c0.8,0,2.2,0.1,3.7,0.1L90,9.2z"/>
<path class="st0" d="M117.8,16.6c1.2,0,1.3,0,1.7-0.5c0.8-0.9,0.9-1,1.1-1c0.2,0,2.5,1.5,2.5,1.8c0,0.4-0.5,0.4-1.4,0.4h-18.3
	c-2.4,0-3.1,0-3.4,0.1c-0.1,0-0.5,0.1-0.6,0.1s-0.2-0.1-0.2-0.2l-0.5-0.6c-0.1-0.1-0.1-0.1-0.1-0.2c0,0,0-0.1,0.1-0.1c0,0,0,0,0,0
	c0.2,0,1,0.1,1.2,0.1c1.3,0.1,2.4,0.1,3.7,0.1h8.2c0.5,0.1,1-0.2,1.2-0.7c0.6-1.3,1-2.7,1.2-4.1c0-0.1,0-0.3-0.1-0.4
	c-0.1,0-0.1-0.1-0.1-0.2c0,0,0-0.1,0.1-0.1c0.3,0,0.4,0.1,1.5,0.6c0.7,0.4,1.3,0.8,1.3,1c0,0.3-0.3,0.4-0.6,0.5
	c-0.3,0.1-0.5,0.3-1.9,2.3c-0.2,0.3-0.4,0.6-0.6,0.9c0,0.2,0.3,0.2,0.5,0.2L117.8,16.6z M116.1,10.2c1.2,0,1.3,0,1.7-0.4
	c0.8-0.9,0.9-1,1.1-1c0.2,0,2.5,1.4,2.5,1.8c0,0.4-0.5,0.4-1.4,0.4h-14.3c-2.4,0-3.1,0.1-3.4,0.1c-0.2,0-0.4,0.1-0.6,0.1
	c-0.1,0-0.1-0.1-0.2-0.2l-0.5-0.6c-0.1-0.1-0.1-0.1-0.1-0.2c0,0,0-0.1,0.1-0.1c0,0,0,0,0,0c0.2,0,1,0.1,1.2,0.1
	c1.3,0.1,2.4,0.1,3.7,0.1h3.4c0.5,0,0.8-0.2,0.8-0.7c0-0.9-0.1-1.8-0.3-2.6c-0.1-0.2-0.2-0.3-0.3-0.5c0-0.1,0.1-0.1,0.2-0.1
	c0.1,0,3,0.3,3,0.8c0,0.1-0.1,0.2-0.4,0.6C112,8,112,8.4,112,8.7c0,1.3,0,1.5,0.8,1.5H116.1z M114.8,19.4c0.4,0,0.7-0.1,1-0.3
	c0.4-0.4,0.5-0.5,0.6-0.5c0.3,0,1.8,0.8,1.8,1.2c0,0.2-0.2,0.4-0.6,0.7c-0.2,0.8-0.2,1.7-0.2,2.5c0,0.9,0.1,5.1,0.1,5.9
	c0,1.6-1.2,1.6-1.4,1.6c-0.6,0-0.6-0.3-0.6-1.2c-0.1-0.7-0.3-0.7-0.8-0.7h-7.9c-0.2,0-0.8,0-0.8,0.6c0,0.6,0,0.6-0.2,0.8
	c-0.3,0.4-0.8,0.6-1.3,0.6c-0.8,0-0.8-0.6-0.8-0.9s0.1-1.5,0.1-1.7c0.1-1.1,0.1-4.8,0.1-6.5c0-0.9,0-1.8-0.1-2.6
	c0-0.1-0.2-0.4-0.2-0.5c0-0.1,0-0.1,0.2-0.1c0.7,0.2,1.4,0.5,2.1,0.8c0.3,0.1,0.6,0.1,0.9,0.1L114.8,19.4z M105.3,11.5
	c0.6,0,3.4,1.3,3.4,3.4c0,0.9-0.4,1.4-1,1.4c-0.9,0-1.3-1-1.5-1.9c-0.1-0.9-0.4-1.8-0.8-2.6c-0.2-0.2-0.2-0.3-0.2-0.3
	C105.2,11.6,105.2,11.5,105.3,11.5L105.3,11.5z M106.7,20.1c-0.8,0-0.8,0.3-0.8,1.5c0,1.7,0,1.9,0.8,1.9h8.1c0.8,0,0.8-0.3,0.8-1.6
	c0-1.5,0-1.8-0.8-1.8H106.7z M106.7,24.2c-0.8,0-0.8,0-0.8,2.4c0,1.2,0,1.4,0.8,1.4h8.1c0.9,0,0.9-0.3,0.9-1.7c0-1.9,0-2.1-0.9-2.1
	L106.7,24.2z"/>
<path class="st0" d="M140.7,28.6c-0.6,0-0.8-0.2-2.2-1.7c-2-2-4.4-3.5-7-4.4c-0.6-0.2-0.7-0.2-0.7-0.4c0-0.2,0.4-0.2,0.5-0.2
	c2.5,0,10.7,2.2,10.7,5.4C142,28,141.5,28.6,140.7,28.6C140.8,28.6,140.8,28.6,140.7,28.6z M139,18.1c0,0.5-0.4,1-0.9,1
	c-0.6,0-0.8-0.2-2.6-1.5c-1.2-0.8-2.5-1.4-3.9-1.8c-0.2-0.1-0.3-0.1-0.3-0.3c0-0.2,0.2-0.2,1.7-0.2C134.3,15.4,139,15.8,139,18.1
	L139,18.1z M133.9,9.3c2.5,0,7.4,0.6,7.4,3.3c0,0.5-0.3,0.9-0.8,0.9c-0.7-0.3-1.4-0.6-2-1.2c-1.6-1.1-1.8-1.2-5.1-2.4
	c-0.6-0.2-0.6-0.2-0.6-0.4C132.8,9.4,133.2,9.3,133.9,9.3z"/>
<path class="st0" d="M158.7,9.9c0-0.3,0.4-0.3,0.6-0.3c1.1-0.1,2.1,0.5,2.5,1.5c0,0.3-0.3,0.7-0.8,1.3c-0.1,0.2-0.2,0.3-0.2,0.4
	c0,0.2,0.3,0.2,0.4,0.2c1.4-0.2,2.8-0.5,4.1-1.1c0.4-0.2,0.8-0.3,1.3-0.4c0.2,0,0.4,0.1,1.5,0.7c0.2,0.1,0.9,0.5,1,0.5
	c0.3,0.1,0.5,0.4,0.5,0.7c0,0.4-0.2,0.5-1.1,1c-0.3,0.2-0.4,0.3-1.3,1.8c-2.4,4-5.7,7.5-9.6,10.1c-1.6,1.1-3.4,2-5.3,2.6
	c-0.1,0-0.2-0.1-0.2-0.2c0,0,0,0,0,0c0-0.1,0.1-0.2,0.9-0.6c8.2-4.5,13.3-13.7,13.3-14.5c0-0.2-0.1-0.3-0.3-0.3c0,0,0,0,0,0
	c-0.1,0-3.8,0.8-4.4,0.8c-0.2,0-0.9-0.1-1-0.1c-0.5,0-0.6,0.1-1.7,1.3c-1.1,1.3-2.3,2.5-3.7,3.5c-0.8,0.6-1.6,1.1-2.6,1.4
	c-0.1,0-0.2-0.1-0.2-0.2c0.7-0.7,1.4-1.4,2.1-2c2.2-2.2,4.7-5.9,4.5-7.5C158.9,10.6,158.7,10,158.7,9.9z"/>
<path class="st0" d="M188.4,6.5c0.5,0,0.8,0.2,0.8,0.6s-0.2,0.6-0.8,0.6h-6.4c-0.7,0-0.7,0.2-0.7,3.4c0,3,0,16.4,0,19.1
	c0,0.6-0.1,0.9-0.6,0.9c-0.6,0-0.6-0.2-0.6-1.8V7.6c-0.1-0.6,0.3-1,0.9-1.1c0.1,0,0.2,0,0.3,0L188.4,6.5z"/>
<path class="st0" d="M209.7,14c0.4-0.1,2.8-0.6,2.8-0.6c0.6,0,3.5,2.2,3.5,3.5c0,0.4-0.4,0.5-1,0.6c-1.4,0.2-1.7,0.4-4.1,2.4
	c-0.4,0.3-1.3,1-1.7,1.5c-0.1,0.1-0.1,0.2-0.1,0.3c0,0.2,0.1,0.3,0.9,1.2c0.5,0.5,0.8,1.2,0.8,1.9c0.1,0.5-0.3,1-0.8,1
	c0,0-0.1,0-0.1,0c-0.7,0-0.9-0.2-2.4-1.9c-1.2-1.3-2.5-2.4-4-3.4c-0.3-0.2-0.3-0.2-0.3-0.3c0-0.1,0.1-0.2,0.2-0.2c0,0,0,0,0,0
	c0.7,0,4.4,1.3,4.5,1.3c0.8,0,4.4-5,4.4-5.8c0-0.3-0.3-0.3-0.5-0.3c-3.7,0.5-7.4,1.2-11,2.2c-0.3,0.1-2,0.9-2.1,0.9
	c-0.4,0-2.6-1.4-2.6-2.7c0-0.1,0-0.4,0.2-0.4c0.3,0.1,0.6,0.2,0.9,0.3c0.5,0.1,1,0.1,1.6,0.1C202.4,15.1,206.1,14.7,209.7,14z"/>
<path class="st0" d="M229,18.3c0,0.6-0.4,1.3-1,1.3c-0.4,0-0.5-0.2-0.9-0.8c-0.6-0.9-1.5-1.7-2.4-2.2c-0.1-0.1-0.3-0.2-0.3-0.3
	c0-0.4,1.7-0.4,1.9-0.4C227.4,15.9,229,17,229,18.3z M225.9,26.6c-0.1-0.2-0.5-0.7-0.6-0.9c-0.1-0.1-0.1-0.3-0.1-0.5
	c0-0.1,0.1-0.2,0.2-0.2c0,0,0,0,0,0c0.1,0,1.3,0.4,1.6,0.4c1.4,0,8.8-4,13.5-8.4c0.3-0.3,1.9-1.9,1.9-1.9c0.1,0,0.2,0.1,0.2,0.2
	c0,0.1-1.3,4.2-11.9,10.8c-1.6,1-1.7,1.1-2,1.3c-1,0.8-1.1,0.9-1.4,0.9C226.7,28.3,226.4,27.7,225.9,26.6L225.9,26.6z M232.3,12.9
	c0,0.7-0.5,1.3-0.9,1.3c-0.3,0-0.4-0.1-1.3-1.2c-0.6-0.7-1.4-1.2-2.3-1.4c-0.4-0.1-0.4-0.1-0.4-0.2c0-0.3,1.2-0.6,2-0.6
	c0.5,0,0.9,0.1,1.4,0.3C231.6,11.3,232.2,12,232.3,12.9z M241.3,11.7c0,0.3-0.4,1-0.9,1c-0.4,0-0.6-0.3-1.3-1.3
	c-0.5-0.7-1.1-1.3-1.7-1.8c-0.1-0.1-0.3-0.3-0.3-0.4c0-0.2,0.3-0.2,0.5-0.2C239.1,9,241.3,10.3,241.3,11.7L241.3,11.7z M244.1,9.9
	c0,0.4-0.3,0.8-0.7,0.9c0,0,0,0,0,0c-0.6,0-0.9-0.6-1.3-1.2c-0.6-0.7-1.3-1.3-2.2-1.7c-0.2-0.1-0.3-0.3-0.3-0.3c0-0.2,0.5-0.2,1-0.2
	C241.3,7.2,244.1,8,244.1,9.9L244.1,9.9z"/>
<path class="st0" d="M264.8,13.4c0.6-0.5,0.7-0.6,0.9-0.6c0.5,0,2.2,1.2,2.2,1.9c-0.2,0.4-0.4,0.8-0.7,1.2c-0.1,0.1-0.8,3.1-0.9,3.6
	c-0.8,3.1-1.5,5.3-2.8,7c-0.3,0.4-1.2,1.5-1.9,1.5c-0.5,0-1-0.3-1-0.6c0.1-0.8-0.1-1.7-0.8-2.2c-0.7-0.7-0.8-0.8-0.8-1
	c0-0.1,0.1-0.1,0.1-0.1c0.5,0.1,1,0.3,1.5,0.5c0.3,0.1,0.7,0.2,1,0.2c0.9,0,1.4-0.8,1.9-2.2c0.8-2.3,1.4-4.7,1.8-7.1
	c0-0.6-0.3-0.6-0.5-0.6c-0.2,0-4,0.4-4.5,0.8c-0.3,0.5-0.5,1-0.7,1.5c-0.9,2.6-2.7,6.6-6,9.3c-1.1,1-2.4,1.7-3.8,2.1
	c-0.1,0-0.2-0.1-0.2-0.2c0-0.1,0.1-0.1,0.5-0.5c3.8-2.9,6.6-7,7.8-11.6c0-0.2-0.1-0.3-0.4-0.3c-0.8,0-4.6,1.1-4.8,1.1
	c-0.5,0-2.3-1.1-2.3-2.2c0-0.1,0-0.2,0.2-0.2c0.2,0,0.4,0.1,0.6,0.1c0.5,0.1,1,0.1,1.5,0.1c0.4,0,4.5-0.2,5.3-0.6
	c0.7-0.3,0.8-2.9,0.8-3.7c0-0.6-0.1-1.2-0.2-1.7c-0.1-0.2-0.2-0.4-0.2-0.6c0-0.2,0.3-0.2,0.4-0.2c0.8,0,3,0.9,3,1.7
	c-0.1,0.4-0.2,0.7-0.5,1c-0.5,0.8-0.9,1.8-1,2.7c0,0.4,0.2,0.4,0.7,0.4C262.6,14.1,263.8,13.9,264.8,13.4z"/>
<path class="st0" d="M279.4,20.1c-1.6,3.5-4.4,5.1-5,5.1c-0.1,0-0.1,0-0.1-0.1c0,0,0,0,0,0c0.3-0.5,0.7-1,1.1-1.4
	c3-4.1,3.2-7,3.2-7.9c0-0.8-0.2-1.6-0.5-2.3c-0.1-0.2-0.1-0.3-0.1-0.5c0-0.1,0-0.1,0.1-0.1c0.2,0,3,0.9,3,2.3
	C281.2,15.2,279.8,19,279.4,20.1z M283.7,22.6c0-0.1,0.1-0.8,0.2-1c0.1-0.5,0.1-2.6,0.1-3.3c0.1-1.7-0.1-3.4-0.5-5
	c-0.1-0.3-0.3-0.6-0.3-1c0-0.1,0.1-0.1,0.2-0.1c0.1,0,3,0.5,3,1.9c0,0.3-0.4,1.7-0.4,2c-0.1,0.7-0.2,4-0.2,4.9c0,0.3,0,0.9,0.5,0.9
	c0.8,0,3.3-1.8,5.9-4.4c0.5-0.5,2.7-2.9,2.8-2.9c0.1,0,0.1,0,0.1,0.1c0,0.2-1.6,3.5-6.3,7.7c-0.7,0.5-1.3,1.1-1.9,1.7
	c-0.5,0.5-0.7,0.7-0.9,0.7C285.1,24.9,283.7,23.3,283.7,22.6L283.7,22.6z"/>
<path class="st0" d="M313.6,28.6c-0.6,0-0.8-0.2-2.2-1.7c-2-2-4.4-3.5-7-4.4c-0.6-0.2-0.7-0.2-0.7-0.4c0-0.2,0.4-0.2,0.5-0.2
	c2.5,0,10.7,2.2,10.7,5.4C314.9,28,314.4,28.6,313.6,28.6C313.7,28.6,313.6,28.6,313.6,28.6z M311.9,18.1c0,0.5-0.4,1-0.9,1
	c-0.6,0-0.8-0.2-2.6-1.5c-1.2-0.8-2.5-1.4-3.9-1.8c-0.2-0.1-0.3-0.1-0.3-0.3c0-0.2,0.2-0.2,1.7-0.2
	C307.2,15.4,311.9,15.8,311.9,18.1L311.9,18.1z M306.8,9.3c2.5,0,7.4,0.6,7.4,3.3c0,0.5-0.3,0.9-0.8,0.9c-0.7-0.3-1.4-0.6-2-1.2
	c-1.6-1.1-1.8-1.2-5.1-2.4c-0.6-0.2-0.6-0.2-0.6-0.4C305.7,9.4,306.1,9.3,306.8,9.3z"/>
<path class="st0" d="M327.2,28c8.4-4.5,10.6-10.3,10.6-10.9c0-0.3-0.2-0.5-0.6-0.5c-0.9,0-7.7,1.2-8.8,1.5c-0.4,0.2-0.8,0.3-1.2,0.5
	c-1.2,0-3.1-2.3-3.1-3.1c0-0.1,0.1-0.1,0.2-0.1c0.2,0.1,0.3,0.1,0.5,0.2c0.9,0.3,1.8,0.5,2.7,0.5c2.2,0,7.5-0.7,8.5-0.8
	c0.1,0,1.8-0.2,1.9-0.2c0.3-0.1,0.5-0.2,0.8-0.3c0.5,0,2.4,1.6,2.4,2.2c0,0.4-0.1,0.5-0.7,1c-0.6,0.6-1.1,1.2-1.5,1.9
	c-2.1,3.2-3.8,5.2-7.6,7.2c-1.5,0.8-3.1,1.4-4.8,1.7c-0.1,0-0.2-0.1-0.2-0.2c0,0,0,0,0,0c0-0.1,0-0.1,0.1-0.2
	C326.3,28.4,327,28.1,327.2,28z M327.9,10.4c0.5,0.1,0.9,0.1,1.4,0.1c1.4,0,2.9-0.1,4.3-0.3c0.4-0.1,2.3-0.5,2.6-0.5
	c0.5,0,1.6,0.2,1.6,1c0,0.8-0.9,0.9-2.5,1c-0.4,0.1-6.2,0.6-6.4,0.6c-1.4,0-2.2-1.8-2.2-2c0-0.1,0.1-0.2,0.2-0.2
	C327,10.1,327.7,10.4,327.9,10.4L327.9,10.4z"/>
<path class="st0" d="M357.5,15.9c1,0.6,1.2,0.8,1.2,1c0,0.2-0.3,0.9-0.3,1.1c-0.2,1.6-0.3,3.2-0.2,4.8c0,0.7,0,2.2,0.1,3.2
	c0,0.3,0.2,1.9,0.2,2.2c0,0.3,0,1.2-0.6,1.2c-0.8,0-1.7-1.2-1.7-1.9c0-0.3,0.3-1.5,0.3-1.7c0.2-1.5,0.3-3.5,0.3-4.9
	c0-1,0-3.8-0.7-3.8c-0.1,0-0.2,0.1-0.5,0.3c-2.6,2.5-7.1,5.1-7.6,5.1c-0.1,0-0.1-0.1-0.1-0.2c0-0.1,0-0.1,0.1-0.2
	c0.7-0.6,1.5-1.2,1.9-1.6c6.3-5.4,8.4-10,8.4-10.7c0-0.3-0.1-0.5-0.2-0.8c-0.1-0.1-0.1-0.3-0.2-0.4c0-0.1,0.1-0.2,0.3-0.2
	c0.4,0,3.1,1.1,3.1,2.1c0,0.2-0.1,0.4-0.2,0.5c-0.7,0.6-1.4,1.4-1.8,2.2c-0.5,0.6-1.3,1.6-1.8,2.3C357.3,15.7,357.3,15.9,357.5,15.9
	z"/>
<path class="st0" d="M385.9,28.8c-0.2,0-0.8,0-0.8-0.4c0-1.4,1.7-3.5,2.3-4.2c6.3-7.5,6.9-8.2,6.9-10.8c0.1-2-1.4-3.7-3.4-3.8
	c-0.1,0-0.1,0-0.2,0c-1.6,0-3,1.1-3,2.3c0,0.3,0.1,0.6,0.3,0.8c0.3,0.4,0.5,0.8,0.6,1.3c0,0.8-0.7,1.4-1.5,1.4
	c-0.9-0.1-1.6-0.8-1.5-1.7c0,0,0-0.1,0-0.1c0-2.3,2.4-4.9,5.8-4.9c2.9,0,5.4,1.9,5.4,5c0,2.8-1.7,4.3-4,6.2
	c-4.1,3.4-5.5,5.9-5.5,6.4c0,0.4,0.9,0.4,1,0.4h2.8c2.7,0,4.3-0.8,5-2.5c0.4-1,0.4-1,0.6-1c0.3,0,0.3,0.3,0.3,0.4
	c0,0.2-0.9,3.7-1,4.2c-0.2,0.7-0.9,1.1-1.6,1L385.9,28.8z"/>
<path class="st0" d="M407.7,29.3c-4.2,0-6-5.3-6-10.3c0-5,1.8-10.3,6-10.3c4.4,0,6,5.6,6,10.3C413.8,23.8,412,29.3,407.7,29.3z
	 M407.7,9.6c-3.6,0-3.6,8.1-3.6,9.4c0,1.1,0,9.4,3.6,9.4c3.6,0,3.6-8,3.6-9.4C411.3,17.9,411.3,9.6,407.7,9.6z"/>
<path class="st0" d="M418.7,28.8c-0.2,0-0.8,0-0.8-0.4c0-1.4,1.7-3.5,2.3-4.2c6.3-7.5,6.9-8.2,6.9-10.8c0.1-2-1.4-3.7-3.4-3.8
	c-0.1,0-0.1,0-0.2,0c-1.6,0-3,1.1-3,2.3c0,0.3,0.1,0.6,0.3,0.8c0.3,0.4,0.5,0.8,0.6,1.3c0,0.8-0.7,1.4-1.5,1.4
	c-0.9-0.1-1.6-0.8-1.5-1.7c0,0,0-0.1,0-0.1c0-2.3,2.4-4.9,5.8-4.9c2.9,0,5.4,1.9,5.4,5c0,2.8-1.7,4.3-4,6.2
	c-4.1,3.4-5.5,5.9-5.5,6.4c0,0.4,0.9,0.4,1,0.4h2.8c2.7,0,4.3-0.8,5-2.5c0.4-1,0.4-1,0.6-1c0.3,0,0.3,0.3,0.3,0.4
	c0,0.2-0.9,3.7-1,4.2c-0.2,0.7-0.9,1.1-1.6,1L418.7,28.8z"/>
<path class="st0" d="M440.5,29.3c-4.2,0-6-5.3-6-10.3c0-5,1.8-10.3,6-10.3c4.4,0,6,5.6,6,10.3C446.5,23.8,444.8,29.3,440.5,29.3z
	 M440.5,9.6c-3.6,0-3.6,8.1-3.6,9.4c0,1.1,0,9.4,3.6,9.4c3.6,0,3.6-8,3.6-9.4C444.1,17.9,444.1,9.6,440.5,9.6z"/>
<path class="st0" d="M451.8,30.7c-0.5,0-0.8-0.2-0.8-0.6s0.2-0.6,0.8-0.6h6.4c0.7,0,0.7-0.2,0.7-3.4c0-3,0-16.4,0-19.1
	c0-0.6,0.1-0.9,0.6-0.9c0.6,0,0.6,0.2,0.6,1.8v21.6c0.1,0.5-0.3,1-0.9,1.1c-0.1,0-0.2,0-0.3,0L451.8,30.7z"/>
<rect y="44.1" width="529.1" height="51.2"/>
<path class="st0" d="M20,60.5c1.1,0.5,2.3,0.8,3.6,0.9c1.8,0,14.4-1.2,16.3-2c1.3-0.6,1.5-0.7,1.8-0.7c1,0,1.6,0.6,3,1.8
	c1.9,1.7,2.2,2.2,2.2,2.8c0,0.6-0.2,0.8-1,1.6c-0.8,0.8-1.3,1.7-1.7,2.7c-6.8,14.1-21.9,20.1-22.3,20.1c-0.2,0-0.3-0.1-0.3-0.3
	c0-0.2,0.1-0.3,0.6-0.6c7.5-5.3,13.6-11,17.1-17.1c1.4-2.3,2.4-4.7,2.9-7.3c0-0.7-0.7-0.8-1-0.8c-0.4,0-12.9,2.1-15.6,3.1
	c-0.7,0.4-1.4,0.7-2.2,1c-1,0-4.5-2.2-4.5-4.5c0-0.8,0.1-1,0.4-1C19.5,60.2,19.9,60.5,20,60.5z M54.8,57.6c0,2.3-1.8,4.2-4.1,4.2
	c-2.3,0-4.2-1.8-4.2-4.1c0,0,0-0.1,0-0.1c0-2.3,1.8-4.1,4.1-4.1c0,0,0.1,0,0.1,0c2.2,0,4.1,1.7,4.1,3.9
	C54.8,57.5,54.8,57.5,54.8,57.6L54.8,57.6z M47.9,57.7c0.1,1.5,1.4,2.7,2.9,2.6c1.4-0.1,2.5-1.2,2.6-2.6c-0.1-1.5-1.3-2.7-2.8-2.7
	C49.1,55,47.9,56.2,47.9,57.7z"/>
<path class="st0" d="M84.1,61.5c1.5-0.7,1.6-0.8,1.9-0.8c0.5,0,4.1,2.1,4.1,3.9c0,0.5-0.2,0.7-1,1.7c-1.3,1.6-3,9.5-3,10
	c0,0.6,0.2,0.8,2.3,2.2c0.3,0.2,0.5,0.5,0.5,0.9c0,0.5-0.6,0.7-0.8,0.7c-0.4,0-2.2-0.5-2.6-0.6c-1.8-0.2-3.6-0.4-5.4-0.4
	c-0.7,0-8.3,0.4-8.7,1.2c-0.8,1.8-1,2.2-1.9,2.2c-1.3,0-1.3-2.1-1.3-2.6c0-7.6-0.1-14-1.6-16c-0.4-0.6-1-1.2-1.7-1.5
	c-0.1,0-0.2-0.1-0.2-0.3c0-0.4,1.2-1.1,1.8-1.1c1.1-0.1,2.1,0.3,3,1c1.1,1,1.2,1,2.2,1C73,63.3,82.9,62.1,84.1,61.5z M74.9,64.9
	c-4.1,0.6-4.1,0.7-4.1,2c0,1.3,0.3,8.1,0.3,9.6c0,1.5,0.8,1.5,1.2,1.5c0.3,0,1.9-0.3,2.8-0.4c0.6-0.1,1.9-0.2,3.2-0.3
	c4.8-0.3,5.3-0.3,5.5-0.9c0-0.1,1.4-10.4,1.4-10.8c0-0.5,0-1.6-1.2-1.6C82.1,63.9,75.9,64.7,74.9,64.9L74.9,64.9z"/>
<path class="st0" d="M112.5,57.2c0-0.4,0.6-0.4,1-0.4c1.7-0.1,3.3,0.8,4,2.4c0,0.5-0.4,1.1-1.3,2.2c-0.2,0.3-0.3,0.5-0.3,0.7
	c0,0.3,0.5,0.3,0.7,0.3c2.3-0.3,4.5-0.8,6.6-1.7c0.6-0.3,1.3-0.6,2-0.7c0.4,0,0.6,0.1,2.4,1.2c0.3,0.1,1.4,0.7,1.6,0.9
	c0.4,0.2,0.7,0.6,0.8,1.1c0,0.6-0.3,0.8-1.7,1.6c-0.5,0.3-0.6,0.6-2.2,2.9c-3.9,6.5-9.2,12-15.5,16.3c-2.6,1.8-5.5,3.2-8.6,4.1
	c-0.2,0-0.4-0.2-0.4-0.4c0,0,0,0,0,0c0-0.2,0.1-0.3,1.5-1c13.2-7.3,21.4-22,21.4-23.3c0-0.3-0.2-0.5-0.5-0.5c0,0,0,0,0,0
	c-0.1,0-6.1,1.3-7.1,1.3c-0.3,0-1.4-0.1-1.7-0.1c-0.8,0-0.9,0.1-2.7,2.2c-1.7,2.1-3.7,4-5.9,5.6c-1.2,1-2.6,1.8-4.2,2.3
	c-0.2,0-0.3-0.1-0.3-0.3c0-0.3,2.9-2.7,3.4-3.2c3.5-3.5,7.6-9.5,7.3-12.1C112.8,58.3,112.5,57.4,112.5,57.2z M132.9,58.7
	c0,0.7-0.5,1.7-1.3,1.7c-0.6,0-1-0.3-2.3-1.9c-0.9-1-1.9-1.9-3.1-2.6c-0.2-0.1-0.6-0.4-0.6-0.6s0.3-0.4,0.7-0.4
	C131.9,54.9,132.9,58.1,132.9,58.7L132.9,58.7z M133.9,52.1c1.8,1,1.8,2,1.8,2.5c0,0.6-0.4,1.2-1.1,1.3c0,0,0,0,0,0
	c-0.9,0-1.3-0.4-2.3-1.4c-1.2-1-2.5-1.7-4-2.1c-0.4-0.1-0.6-0.3-0.6-0.5c0-0.3,1.1-0.6,1.6-0.6C130.9,51.1,132.5,51.4,133.9,52.1
	L133.9,52.1z"/>
<path class="st0" d="M148.7,85.8c13.5-7.3,17-16.6,17-17.5c0-0.5-0.3-0.8-0.9-0.8c-1.5,0-12.3,1.9-14.2,2.5c-0.6,0.3-1.3,0.5-2,0.7
	c-1.9,0-4.9-3.7-4.9-4.9c0-0.1,0.1-0.2,0.3-0.2c0.3,0.1,0.5,0.2,0.8,0.3c1.4,0.5,2.8,0.8,4.3,0.7c3.5,0,12.1-1.1,13.7-1.3
	c0.1,0,2.9-0.3,3-0.3c0.4-0.2,0.8-0.4,1.3-0.5c0.7,0,3.8,2.6,3.8,3.5c0,0.6-0.2,0.8-1.2,1.6c-0.9,0.9-1.7,1.9-2.3,3.1
	c-3.4,5.2-6.1,8.4-12.2,11.5c-2.4,1.3-5,2.2-7.7,2.8c-0.2,0-0.4-0.1-0.4-0.3c0,0,0,0,0,0c0-0.1,0-0.2,0.1-0.3
	C147.2,86.5,148.4,85.9,148.7,85.8z M149.8,57.5c0.8,0.1,1.5,0.2,2.3,0.2c2.3,0,4.6-0.1,6.9-0.5c0.6-0.1,3.6-0.9,4.2-0.9
	c0.7,0,2.6,0.4,2.6,1.6c0,1.3-1.5,1.5-4,1.7c-0.7,0.1-10,0.9-10.3,0.9c-2.3,0-3.6-2.9-3.6-3.2c0-0.2,0.1-0.3,0.3-0.3
	C148.5,57.1,149.5,57.5,149.8,57.5L149.8,57.5z"/>
<path class="st0" d="M201.8,86.8c-1,0-1.3-0.3-3.6-2.8c-3.2-3.2-7-5.6-11.3-7c-1-0.3-1.1-0.4-1.1-0.6c0-0.4,0.6-0.4,0.8-0.4
	c4.1,0,17.2,3.5,17.2,8.7C203.9,85.8,203,86.7,201.8,86.8C201.8,86.8,201.8,86.8,201.8,86.8z M199.1,69.8c0,0.9-0.7,1.6-1.5,1.7
	c-1,0-1.3-0.3-4.1-2.4c-1.1-0.8-2.1-1.4-6.3-2.9c-0.3-0.1-0.5-0.2-0.5-0.4c0-0.4,0.3-0.4,2.8-0.3C191.5,65.5,199.1,66.2,199.1,69.8z
	 M190.7,55.8c4,0,11.9,1,11.9,5.3c0,0.8-0.5,1.4-1.3,1.5c-0.5,0-1.5-0.7-3.2-1.9c-2.6-1.8-2.9-1.9-8.2-3.9c-1-0.4-1-0.4-1-0.7
	C188.9,55.9,189.6,55.8,190.7,55.8z"/>
<path class="st0" d="M231.2,79.4c-1.5,1-2.9,2.2-4.2,3.5c-0.8,1-0.9,1.1-1.6,1.1c-2.3,0-5.5-2.8-5.5-4.5c0-0.3,0-2.3,0.4-2.3
	c0.5,0.2,0.9,0.5,1.3,0.8c0.9,0.5,1.9,0.9,2.9,1c2.1,0,13.6-7.7,20.8-14.7c0.7-0.7,1.9-1.9,2-1.9c0.1,0,0.2,0.1,0.2,0.2
	C247.5,63,242.4,71.1,231.2,79.4z M227.7,65.1c-1.2,0-1.6-0.7-3-2.9c-1-1.5-2.3-2.7-3.9-3.5c-0.2-0.1-0.4-0.2-0.4-0.4
	s0.3-0.4,0.9-0.4c4.6,0,8.3,2.5,8.3,5c0.1,1-0.6,2-1.6,2.1C227.8,65.1,227.7,65.1,227.7,65.1L227.7,65.1z"/>
<path class="st0" d="M265.5,57.2c0-0.4,0.6-0.4,1-0.4c1.7-0.1,3.3,0.8,4,2.4c0,0.5-0.4,1.1-1.3,2.2c-0.2,0.3-0.3,0.5-0.3,0.7
	c0,0.3,0.5,0.3,0.7,0.3c2.3-0.3,4.5-0.8,6.6-1.7c0.6-0.3,1.3-0.6,2-0.7c0.4,0,0.6,0.1,2.4,1.2c0.3,0.1,1.4,0.7,1.6,0.9
	c0.4,0.2,0.7,0.6,0.8,1.1c0,0.6-0.3,0.8-1.7,1.6c-0.5,0.3-0.6,0.6-2.2,2.9c-3.9,6.5-9.2,12-15.5,16.3c-2.6,1.8-5.5,3.2-8.6,4.1
	c-0.2,0-0.4-0.2-0.4-0.4c0,0,0,0,0,0c0-0.2,0.1-0.3,1.5-1c13.2-7.3,21.4-22,21.4-23.3c0-0.3-0.2-0.5-0.5-0.5c0,0,0,0,0,0
	c-0.1,0-6.1,1.3-7.1,1.3c-0.3,0-1.4-0.1-1.7-0.1c-0.8,0-0.9,0.1-2.7,2.2c-1.7,2.1-3.7,4-5.9,5.6c-1.2,1-2.6,1.8-4.1,2.3
	c-0.2,0-0.3-0.1-0.3-0.3c0-0.3,2.9-2.7,3.4-3.2c3.5-3.5,7.6-9.5,7.3-12.1C265.7,58.3,265.5,57.4,265.5,57.2z M285.8,58.7
	c0,0.7-0.5,1.7-1.3,1.7c-0.6,0-1-0.3-2.3-1.9c-0.9-1-1.9-1.9-3.1-2.6c-0.2-0.1-0.6-0.4-0.6-0.6s0.3-0.4,0.7-0.4
	C284.9,54.9,285.9,58.1,285.8,58.7L285.8,58.7z M286.9,52.1c1.8,1,1.8,2,1.8,2.5c0,0.6-0.4,1.2-1.1,1.3c0,0,0,0,0,0
	c-0.9,0-1.3-0.4-2.3-1.4c-1.1-1-2.5-1.7-4-2.1c-0.4-0.1-0.6-0.3-0.6-0.5c0-0.3,1.1-0.6,1.6-0.6C283.9,51.1,285.5,51.4,286.9,52.1
	L286.9,52.1z"/>
<path class="st0" d="M304.1,70.8c0-1.6,1.3-2.9,2.9-2.9c1.6,0,2.9,1.3,2.9,2.9c0,1.6-1.3,2.9-2.9,2.9
	C305.4,73.6,304.1,72.3,304.1,70.8C304.1,70.8,304.1,70.8,304.1,70.8z"/>
<path class="st0" d="M335.7,63.3c3.9,0,13.1-0.8,14-1.4c1.6-1,1.7-1.1,2.1-1.1c0.9,0,5,2.8,5,3.9c0,0.4-0.1,0.5-1.5,1.5
	c-0.8,0.6-1,1.2-2.4,7.2c-0.1,0.4-0.7,2.3-0.7,2.6c0,0.6,0.4,0.6,1,0.7c1.1,0.2,2.7,0.7,2.7,1.8c0,1.2-2,1.2-2.3,1.2
	c-1.1,0-5.9-0.3-6.9-0.3c-2.7,0-10.9,0.9-11.6,1.1c-0.3,0-1.3,0.5-1.6,0.5c-0.8,0-3.3-1.9-3.3-3.5c0-0.2,0.2-0.3,0.4-0.3
	c0.4,0,0.9,0.1,1.3,0.2c0.7,0.1,1.5,0.1,2.2,0.1c3,0,14.3-0.8,15-1.1c0.5-0.3,0.7-0.8,1-2.9c0.5-3.8,0.9-7.6,0.9-8.4
	c0-0.7-0.2-0.9-0.6-0.9c-1.3,0-12.1,1.7-13.7,2.1c-0.4,0.1-1.9,0.7-2.2,0.7c-1,0-4-2.6-4-3.5c0-0.3,0.3-0.4,0.5-0.4
	C331.2,63.1,335,63.3,335.7,63.3z"/>
<path class="st0" d="M382.8,79.4c-1.5,1-2.9,2.2-4.2,3.5c-0.8,1-0.9,1.1-1.6,1.1c-2.3,0-5.5-2.8-5.5-4.5c0-0.3,0-2.3,0.4-2.3
	c0.5,0.2,0.9,0.5,1.3,0.8c0.9,0.5,1.9,0.9,2.9,1c2.1,0,13.6-7.7,20.8-14.7c0.7-0.7,1.9-1.9,2-1.9c0.1,0,0.2,0.1,0.2,0.2
	C399.1,63,394,71.1,382.8,79.4z M379.2,65.1c-1.2,0-1.6-0.7-3-2.9c-1-1.5-2.3-2.7-3.9-3.5c-0.2-0.1-0.4-0.2-0.4-0.4s0.3-0.4,1-0.4
	c4.6,0,8.3,2.5,8.3,5c0.1,1-0.6,2-1.6,2.1C379.4,65.1,379.3,65.1,379.2,65.1z"/>
<path class="st0" d="M428.8,70.9c0,0.3-1,1.1-1.2,1.3c-0.1,0.2-1.8,4.2-2.2,4.9c-4.1,8.3-10.9,11.1-11.5,11.1
	c-0.2,0-0.3-0.1-0.3-0.2c0.7-0.8,1.5-1.5,2.3-2.2c4.5-4.4,7.5-10.1,8.5-16.3c0-0.5-0.1-1.3-1-1.3c-2.3,0.3-4.6,0.7-6.9,1.3
	c-1,0.3-2.1,0.6-3.1,0.8c-1.8-0.2-3.2-1.5-3.4-3.3c0-0.3,0.1-0.4,0.3-0.4c0.2,0.1,0.4,0.1,0.6,0.2c0.9,0.2,1.8,0.3,2.7,0.3
	c2.8,0,14-1.2,17-1.6c0.5-0.1,2.8-0.8,3.2-0.8c0.5,0,5.4,1,5.4,2.7c0,0.8-0.7,1-1.3,1c-0.5,0-2.6-0.3-3-0.4
	c-0.9-0.1-2.1-0.2-3.1-0.2c-1.5,0-2.9,0-4.4,0.1c-0.3,0.1-0.4,0.4-0.3,0.6C428,69.3,428.4,70.1,428.8,70.9z M419.2,58.2
	c1.3,0,1.8-0.1,6.1-1.1c1.1-0.3,2.3-0.5,3.5-0.5c0.9,0,2.5,0.2,2.5,1.4s-0.7,1.3-3.3,1.6c-2.2,0.3-5.1,0.8-5.7,1
	c-0.2,0-1.9,0.4-2,0.4c-2.1,0-3.5-3-3.2-3.1C417.2,57.9,418.9,58.2,419.2,58.2L419.2,58.2z"/>
<path class="st0" d="M467.1,62.2c-0.3,0-9.4,2.1-9.6,2.2c-0.6,0.3-1.3,0.6-1.9,0.8c-1.1-0.3-2.1-0.9-2.9-1.6c-0.5-0.8-0.8-1.6-1-2.5
	c0-0.2,0-0.3,0.3-0.3c0,0,1,0.3,1.1,0.3c0.7,0.3,1.5,0.4,2.3,0.4c1.5,0,9.6-0.7,11.8-1.6c0.8-0.5,1.5-1,2.4-1.3c1,0,3.7,2.2,3.7,3.3
	c0,0.4-1.6,1.6-1.9,1.9c-0.9,1-4.3,6.1-5,7.1c-0.2,0.2-0.3,0.5-0.3,0.9c0,0.4,0.1,0.5,1.9,1.5c1.9,1.1,9.7,5.5,9.7,9.4
	c0,1-0.8,1.8-1.8,1.9c-1,0-1.2-0.3-2.7-3c-3-5.2-6.8-8.5-7.7-8.5c-0.4,0-0.6,0.1-1.5,1.2c-1.5,1.6-5.9,6.4-11.5,9.3
	c-0.8,0.5-1.7,0.8-2.7,1c-0.1,0-0.3,0-0.3-0.3c0.6-0.6,1.3-1.1,2-1.6c11.3-8.2,16.4-19.4,16.3-20.1
	C467.6,62.3,467.3,62.2,467.1,62.2z"/>
<path class="st0" d="M495.5,54.5c1.6,0,4.7,1.4,4.7,2.8c-0.1,0.6-0.3,1.2-0.5,1.8c-0.2,2-0.4,4-0.4,6c0,0.9,0.2,1.1,1.4,1.4
	c2.6,0.6,9.3,3.8,9.3,7c0,0.8-0.6,1.5-1.4,1.5c0,0-0.1,0-0.1,0c-1.1,0-1.2-0.2-4.1-3.9c-1.2-1.6-3.2-3.6-4.6-3.6
	c-0.4,0-0.6,0-0.6,3.2c0,4.6,0,6.9,0.2,10.8c0,0.5,0.1,1.6,0.1,2.2c0,1.1,0,3.9-1.3,3.9c-1.3,0-2.4-2.9-2.4-4.1
	c0-0.2,0.2-1.1,0.2-1.3c0.3-3.3,0.4-6.7,0.4-10c0-12.4,0-13.7-0.5-15.1c-0.3-0.8-0.8-1.5-1.5-2l-0.1-0.2
	C494.4,54.5,495.5,54.5,495.5,54.5z"/>
</svg>