<svg version="1.1" xmlns="http://www.w3.org/2000/svg" viewBox="0 0 160.1 48.8" width="160" height="49">
<style type="text/css">
	.st0{fill:#000;}
</style>
<title>logo_magical</title>
<path class="st0" d="M41.9,35.6h18.8c0.2,0,0.4,0.2,0.4,0.4v5.2c0,0.2-0.2,0.4-0.4,0.4H41.9c-0.2,0-0.4-0.2-0.4-0.4V36
	C41.5,35.8,41.7,35.6,41.9,35.6z"/>
<path class="st0" d="M60.7,42.9H41.8l4.7,4.7c0.1,0.1,0.2,0.1,0.3,0.1h14c0.2,0,0.4-0.2,0.4-0.4v0v-4C61.1,43.1,60.9,42.9,60.7,42.9
	z"/>
<path class="st0" d="M60.7,27.2H42.3c-0.4,0-0.8,0.4-0.8,0.8v6c0,0.2,0.2,0.4,0.4,0.4h0h18.8c0.2,0,0.4-0.2,0.4-0.4v0v-6.4
	C61.1,27.4,60.9,27.2,60.7,27.2L60.7,27.2z"/>
<path class="st0" d="M95.2,27.2c-0.2,0-0.4,0.1-0.6,0.2l-10,10c-0.1,0.1-0.1,0.2-0.1,0.3v9.1c0,0.2,0.2,0.4,0.4,0.4
	c0.1,0,0.2,0,0.3-0.1l7.2-7.2v7.8h4.8V35.1l7.8-7.8L95.2,27.2z"/>
<path class="st0" d="M82.7,35.6H62.9c-0.2,0-0.4,0.2-0.4,0.4v0v5.2c0,0.2,0.2,0.4,0.4,0.4h0h12.6c0.2,0,0.4,0.2,0.4,0.4v0v6.8
	l7.1-7.1c0.1-0.1,0.1-0.2,0.1-0.3V36C83.1,35.8,83,35.6,82.7,35.6z"/>
<path class="st0" d="M82.7,27.2H63.3c-0.4,0-0.8,0.4-0.8,0.8v6c0,0.2,0.2,0.4,0.4,0.4h0h19.8c0.2,0,0.4-0.2,0.4-0.4v0v-6.4
	C83.1,27.4,83,27.2,82.7,27.2L82.7,27.2z"/>
<path class="st0" d="M129.9,27.2h-12.2c-0.4,0-0.8,0.4-0.8,0.8v0v19.3c0,0.2,0.2,0.4,0.4,0.4l0,0h12.6c0.2,0,0.4-0.2,0.4-0.4V27.6
	C130.3,27.4,130.1,27.2,129.9,27.2z M125.5,42.9h-3.8v-8.5h3.8L125.5,42.9z"/>
<path class="st0" d="M115.1,41.1c0.2,0,0.4-0.2,0.4-0.4v0v-13c0-0.2-0.2-0.4-0.4-0.4l0,0h-5.7c-0.2,0-0.4,0.1-0.6,0.2l-6.3,6.3
	c-0.2,0.2-0.2,0.4,0,0.6c0.1,0.1,0.2,0.1,0.3,0.1h7v1.8h-7.6c-0.2,0-0.4,0.2-0.4,0.4v0v10.6c0,0.2,0.2,0.4,0.4,0.4l0,0h12.8
	c0.2,0,0.4-0.2,0.4-0.4v0v-4c0-0.2-0.2-0.4-0.4-0.4l0,0h-7.6v-1.8H115.1z"/>
<path class="st0" d="M159.7,27.2h-12.2c-0.4,0-0.8,0.4-0.8,0.8v0v19.3c0,0.2,0.2,0.4,0.4,0.4h12.6c0.2,0,0.4-0.2,0.4-0.4V27.6
	C160.1,27.4,160,27.2,159.7,27.2z M155.3,42.9h-3.8v-8.5h3.8V42.9z"/>
<path class="st0" d="M144.9,41.1c0.2,0,0.4-0.2,0.4-0.4v-13c0-0.2-0.2-0.4-0.4-0.4h-12.8c-0.2,0-0.4,0.2-0.4,0.4V34
	c0,0.2,0.2,0.4,0.4,0.4h7.6v1.8h-7.6c-0.2,0-0.4,0.2-0.4,0.4v10.6c0,0.2,0.2,0.4,0.4,0.4h12.8c0.2,0,0.4-0.2,0.4-0.4v-4
	c0-0.2-0.2-0.4-0.4-0.4h-7.6v-1.8H144.9z"/>
<path class="st0" d="M94.3,0h5.2c0.2,0,0.4,0.2,0.4,0.4v18.4c0,0.2-0.2,0.4-0.4,0.4h-5.2c-0.2,0-0.4-0.2-0.4-0.4V0.4
	C93.9,0.2,94.1,0,94.3,0z"/>
<path class="st0" d="M51.4,6.2c0.1-0.1,0.2-0.4,0.2-0.6V0.8c0-0.4-0.4-0.8-0.8-0.8h-50C0.4,0,0,0.4,0,0.8C0,1,0.1,1.2,0.2,1.4
	L13,14.2c0.1,0.1,0.4,0.2,0.6,0.2H38c0.2,0,0.4,0.2,0.4,0.4v0v4.4L51.4,6.2z"/>
<path class="st0" d="M31.9,19.4c-0.1-0.1-0.4-0.2-0.6-0.2H18.1l13,13c0.3,0.3,0.8,0.3,1.1,0l5.7-5.7c0.3-0.3,0.3-0.8,0-1.1
	L31.9,19.4z"/>
<path class="st0" d="M107.5,6c-0.2,0-0.4-0.2-0.4-0.4c0,0,0,0,0,0V0.4c0-0.2-0.2-0.4-0.4-0.4c0,0,0,0,0,0h-5.2
	c-0.2,0-0.4,0.2-0.4,0.4c0,0,0,0,0,0v18.4c0,0.2,0.2,0.4,0.4,0.4c0.1,0,0.2,0,0.3-0.1L114.9,6H107.5z"/>
<path class="st0" d="M92.1,0H74.5c-0.4,0-0.8,0.4-0.8,0.8c0,0,0,0,0,0v4.8c0,0.2,0.2,0.4,0.4,0.4l0,0h2.3c0.2,0,0.4,0.2,0.4,0.4
	c0,0,0,0,0,0v12.4c0,0.2,0.2,0.4,0.4,0.4l0,0h5.3c0.2,0,0.4-0.2,0.4-0.4c0,0,0,0,0,0V6.4c0-0.2,0.2-0.4,0.4-0.4l0,0h4
	c0.2,0,0.4,0.2,0.4,0.4c0,0,0,0,0,0v12.4c0,0.2,0.2,0.4,0.4,0.4l0,0h4c0.2,0,0.4-0.2,0.4-0.4c0,0,0,0,0,0V0.4
	C92.5,0.2,92.3,0,92.1,0C92.1,0,92.1,0,92.1,0z"/>
<path class="st0" d="M53.5,6h11.2c0.2,0,0.4-0.2,0.4-0.4c0,0,0,0,0,0V0.4c0-0.2-0.2-0.4-0.4-0.4c0,0,0,0,0,0H53.9
	c-0.4,0-0.8,0.4-0.8,0.8v4.8C53.1,5.8,53.2,6,53.5,6L53.5,6z"/>
<path class="st0" d="M53.5,7.2h11.2c0.2,0,0.4,0.2,0.4,0.4v5.2c0,0.2-0.2,0.4-0.4,0.4H53.5c-0.2,0-0.4-0.2-0.4-0.4V7.6
	C53.1,7.4,53.2,7.2,53.5,7.2z"/>
<path class="st0" d="M66.7,19.2c0.1,0,0.2,0,0.3-0.1l5.2-5.2c0.1-0.1,0.1-0.2,0.1-0.3v-6c0-0.2-0.2-0.4-0.4-0.4l0,0h-5.2
	c-0.2,0-0.4,0.2-0.4,0.4c0,0,0,0,0,0V14c0,0.2-0.2,0.4-0.4,0.4l0,0H53.4c-0.2,0-0.4,0.1-0.6,0.2l-4.6,4.6H66.7z"/>
<path class="st0" d="M66.7,0h5.2c0.2,0,0.4,0.2,0.4,0.4V2c0,0.2-0.2,0.4-0.4,0.4h-5.2c-0.2,0-0.4-0.2-0.4-0.4V0.4
	C66.3,0.2,66.4,0,66.7,0z"/>
<path class="st0" d="M66.7,3.6h5.2c0.2,0,0.4,0.2,0.4,0.4v1.6c0,0.2-0.2,0.4-0.4,0.4h-5.2c-0.2,0-0.4-0.2-0.4-0.4V4
	C66.3,3.8,66.4,3.6,66.7,3.6z"/>
<polygon class="st0" points="79.8,21.4 78.8,23.2 77.8,21.4 77.2,21.4 77.2,25 77.8,25 77.8,22.6 78.8,24.4 79.8,22.6 79.8,25
	80.4,25 80.4,21.4 "/>
<rect x="82.7" y="21.4" class="st0" width="0.6" height="3.6"/>
<path class="st0" d="M92.4,21.4v3H91v-3h-0.6v3c0,0.3,0.3,0.6,0.6,0.6h1.4c0.3,0,0.6-0.3,0.6-0.6v-3H92.4z"/>
<rect x="85.6" y="21.4" class="st0" width="0.6" height="3.6"/>
<polygon class="st0" points="88.3,21.4 87.6,21.4 86.5,23.2 86.5,23.2 87.6,25 88.3,25 87.2,23.2 "/>
<polygon class="st0" points="66.9,21.4 66.9,24 65.2,21.4 64.6,21.4 64.6,25 65.2,25 65.2,22.5 66.9,25 67.5,25 67.5,21.4 "/>
<polygon class="st0" points="43.5,21.4 43.5,22.9 42.1,22.9 42.1,21.4 41.5,21.4 41.5,25 42.1,25 42.1,23.5 43.5,23.5 43.5,25
	44.1,25 44.1,21.4 "/>
<polygon class="st0" points="72.3,22 72.3,21.4 69.7,21.4 69.7,25 72.3,25 72.3,24.4 70.3,24.4 70.3,23.5 72.3,23.5 72.3,22.9
	70.3,22.9 70.3,22 "/>
<path class="st0" d="M61.8,21.4v3h-1.4v-3h-0.6v3c0,0.3,0.3,0.6,0.6,0.6h1.4c0.3,0,0.6-0.3,0.6-0.6v-3H61.8z"/>
<polygon class="st0" points="53.2,21.4 50.6,21.4 50.6,22 51.6,22 51.6,25 52.2,25 52.2,22 53.2,22 "/>
<path class="st0" d="M55.7,22.6V22h1.9v-0.6h-1.9c-0.3,0-0.6,0.3-0.6,0.6v0.6c0,0.3,0.2,0.5,0.4,0.6l1.6,0.6v0.6h-1.9V25h1.9
	c0.3,0,0.6-0.3,0.6-0.6v-0.6c0-0.3-0.2-0.5-0.4-0.6L55.7,22.6z"/>
<polygon class="st0" points="48,21.4 47.4,21.4 46.1,25 46.7,25 47.7,22.3 48.7,25 49.3,25 "/>
<polygon class="st0" points="108.3,21.4 107.3,23.2 106.2,21.4 105.6,21.4 105.6,25 106.2,25 106.2,22.6 107.3,24.4 108.3,22.6
	108.3,25 108.9,25 108.9,21.4 "/>
<rect x="121" y="21.4" class="st0" width="0.6" height="3.6"/>
<path class="st0" d="M116.7,24.4V22h2v-0.6h-2c-0.3,0-0.6,0.3-0.6,0.6v3h2.6v-2.1h-1.3v0.6h0.7v0.9L116.7,24.4z"/>
<path class="st0" d="M124.5,24.4V22h2v-0.6h-2c-0.3,0-0.6,0.3-0.6,0.6v3h2.6v-0.6L124.5,24.4z"/>
<polygon class="st0" points="134.4,24.4 134.4,21.4 133.8,21.4 133.8,25 136.4,25 136.4,24.4 "/>
<polygon class="st0" points="112.8,21.4 112.2,21.4 110.9,25 111.5,25 112.5,22.3 113.5,25 114.1,25 "/>
<polygon class="st0" points="130.5,21.4 129.8,21.4 128.5,25 129.2,25 130.2,22.3 131.1,25 131.8,25 "/>
<polygon class="st0" points="143.9,21.4 142.9,23.2 141.8,21.4 141.2,21.4 141.2,25 141.8,25 141.8,22.6 142.9,24.4 143.9,22.6
	143.9,25 144.5,25 144.5,21.4 "/>
<rect x="146.8" y="21.4" class="st0" width="0.6" height="3.6"/>
<rect x="159.5" y="21.4" class="st0" width="0.6" height="3.6"/>
<polygon class="st0" points="156.3,21.4 155.6,21.4 154.3,25 155,25 155.9,22.3 156.9,25 157.6,25 "/>
<polygon class="st0" points="152.3,21.4 149.7,21.4 149.7,21.4 149.7,21.4 149.7,25 150.3,25 150.3,22 151.7,22 151.7,22.7
	150.8,23.1 151.7,25 152.3,25 151.6,23.4 152.3,23.1 "/>
<path class="st0" d="M99.3,21.8c-0.5,0-0.7,0.2-0.6,0.4c0.2,0.3,0.4,0.7,0.6,1c0.2-0.3,0.4-0.6,0.6-1C100,22,99.8,21.8,99.3,21.8z"
	/>
<path class="st0" d="M99.3,24.6c0.5,0,0.7-0.2,0.6-0.4c-0.2-0.3-0.4-0.7-0.6-1c-0.2,0.3-0.4,0.6-0.6,1
	C98.7,24.4,98.8,24.6,99.3,24.6z"/>
<path class="st0" d="M100.8,23.2c0-0.5-0.2-0.7-0.4-0.6c-0.3,0.2-0.7,0.4-1,0.6c0.3,0.2,0.6,0.4,1,0.6
	C100.5,23.9,100.8,23.7,100.8,23.2z"/>
<path class="st0" d="M97.9,23.2c0,0.5,0.2,0.7,0.4,0.6c0.3-0.2,0.7-0.4,1-0.6c-0.3-0.2-0.6-0.4-1-0.6C98.1,22.5,97.9,22.7,97.9,23.2
	z"/>
</svg>